<?xml version="1.0" encoding="utf-8"?>
<!-- Generator: Adobe Illustrator 16.0.0, SVG Export Plug-In . SVG Version: 6.00 Build 0)  -->
<!DOCTYPE svg PUBLIC "-//W3C//DTD SVG 1.1//EN" "http://www.w3.org/Graphics/SVG/1.1/DTD/svg11.dtd">
<svg version="1.1" id="Layer_1" xmlns="http://www.w3.org/2000/svg" xmlns:xlink="http://www.w3.org/1999/xlink" x="0px" y="0px"
	 width="144px" height="104.333px" viewBox="0 0 144 104.333" enable-background="new 0 0 144 104.333" xml:space="preserve">
<g>
	<g>
		<g>
			<path d="M64.059,22.37c-0.003-0.011-0.007-0.021-0.009-0.032c-0.022-0.099-0.052-0.195-0.089-0.289
				c-0.014-0.034-0.029-0.067-0.043-0.099c-0.034-0.072-0.072-0.142-0.114-0.209c-0.018-0.028-0.035-0.059-0.055-0.086
				c-0.061-0.086-0.126-0.169-0.202-0.245c-0.003-0.004-0.007-0.009-0.01-0.013c0,0,0-0.001-0.001-0.001L43.621,1.558
				c-0.358-0.356-0.843-0.557-1.348-0.557H3.057c-0.772,0-1.469,0.466-1.765,1.179C1.19,2.426,1.146,2.685,1.15,2.941
				c0,0.017-0.003,0.034-0.003,0.051v98.584c0,0.505,0.201,0.992,0.56,1.35c0.358,0.358,0.844,0.561,1.351,0.561l19.834-0.002
				h19.622c0.015,0,0.04,0.002,0.077,0.002c0.974,0,9.658-0.175,15.743-6.177c3.825-3.775,5.765-8.977,5.765-15.462V22.75
				c0-0.013-0.004-0.024-0.004-0.037C64.091,22.598,64.082,22.483,64.059,22.37z M41.483,4.822l16.078,16.017H23.682L7.669,4.822
				H41.483z M4.968,7.593L20.98,23.543v76.122L4.968,99.667V7.593z M55.671,94.565c-5.157,5.109-13.027,5.085-13.133,5.1H24.801
				V24.66h35.475v57.188C60.276,87.261,58.727,91.54,55.671,94.565z"/>
			<path d="M142.867,61.905c-0.004-0.02-0.011-0.038-0.016-0.058c-0.021-0.089-0.048-0.178-0.083-0.265
				c-0.014-0.035-0.029-0.069-0.045-0.103c-0.032-0.073-0.07-0.141-0.112-0.208c-0.019-0.029-0.034-0.058-0.054-0.086
				c-0.062-0.087-0.129-0.173-0.207-0.251l-0.004-0.005c-0.002-0.001-0.003-0.003-0.005-0.004l-18.276-18.475l18.222-18.32
				c0.385-0.351,0.63-0.85,0.63-1.411c0-0.388-0.124-0.745-0.323-1.046c0,0,0-0.001-0.001-0.001
				c-0.066-0.103-0.143-0.195-0.228-0.283c-0.006-0.005-0.008-0.012-0.015-0.018l-19.566-19.78c-0.091-0.09-0.188-0.171-0.292-0.242
				c-0.06-0.04-0.127-0.07-0.191-0.103c-0.046-0.024-0.091-0.054-0.139-0.075c-0.062-0.026-0.128-0.04-0.192-0.059
				c-0.056-0.017-0.108-0.04-0.165-0.051c-0.059-0.012-0.117-0.013-0.175-0.018c-0.067-0.007-0.133-0.021-0.199-0.021
				c-0.001,0-0.004,0-0.005,0s-0.002,0-0.003,0H62.08c-0.772,0-1.468,0.464-1.767,1.176c-0.297,0.713-0.137,1.535,0.406,2.084
				l19.568,19.781c0.359,0.364,0.85,0.567,1.36,0.567h15.248L80.512,40.929c-0.749,0.745-0.753,1.953-0.012,2.704l19.78,19.993
				c0.011,0.011,0.022,0.017,0.032,0.027c0.078,0.075,0.159,0.145,0.248,0.206c0.006,0.003,0.009,0.008,0.014,0.011
				c0.094,0.062,0.194,0.114,0.298,0.159c0.03,0.013,0.059,0.024,0.089,0.035c0.08,0.03,0.159,0.054,0.242,0.074
				c0.032,0.007,0.063,0.016,0.096,0.022c0.108,0.02,0.221,0.033,0.333,0.033c0.002,0,0.005,0.001,0.007,0.001s0.003,0,0.003,0
				h37.434v17.441c0,17.381-17.141,17.649-17.866,17.653H81.861c-1.059,0-1.914,0.857-1.914,1.915c0,1.057,0.855,1.912,1.914,1.912
				h39.348c0.217,0,21.695-0.244,21.695-21.48V62.28c0-0.012-0.003-0.023-0.004-0.035C142.899,62.13,142.889,62.017,142.867,61.905z
				 M121.411,5.648l14.993,15.156h-30.23L121.411,5.648z M82.446,20.804L66.667,4.852h50.118l-16.039,15.952H82.446z
				 M102.324,24.632h34.062l-34.741,34.93l-17.08-17.265L102.324,24.632z M106.263,60.366l15.152-15.152l14.989,15.152H106.263z"/>
		</g>
	</g>
</g>
</svg>
