<?xml version="1.0" encoding="utf-8"?>
<!-- Generator: Adobe Illustrator 16.0.0, SVG Export Plug-In . SVG Version: 6.00 Build 0)  -->
<!DOCTYPE svg PUBLIC "-//W3C//DTD SVG 1.1//EN" "http://www.w3.org/Graphics/SVG/1.1/DTD/svg11.dtd">
<svg version="1.1" id="Layer_1" xmlns="http://www.w3.org/2000/svg" xmlns:xlink="http://www.w3.org/1999/xlink" x="0px" y="0px"
	 width="432px" height="432px" viewBox="0 0 432 432" enable-background="new 0 0 432 432" xml:space="preserve">
<circle fill="#FE5E14" cx="-299" cy="175" r="105"/>
<g>
	<path fill="#FE5E14" d="M62.929,328.787h13.986c4.771,0,8.314,1.109,10.627,3.33c2.312,2.223,3.469,5.664,3.469,10.324v11.232
		c0,4.662-1.157,8.104-3.469,10.324c-2.313,2.221-5.856,3.33-10.627,3.33H62.929v-6.992h3.635v-24.611h-3.635V328.787z
		 M76.915,360.391c2.533,0,4.304-0.596,5.313-1.789s1.513-3.055,1.513-5.59v-10.57c0-2.201-0.504-3.873-1.513-5.012
		c-1.009-1.137-2.78-1.705-5.313-1.705h-3.084v24.666H76.915z"/>
	<path fill="#FE5E14" d="M98.884,360.721h9.25v-14.094h-8.59v-6.607h15.528v20.701H123v6.607H98.884V360.721z M116.778,331.926
		c0,0.732-0.138,1.422-0.413,2.064c-0.275,0.643-0.652,1.191-1.129,1.65s-1.037,0.826-1.679,1.104
		c-0.642,0.275-1.313,0.412-2.01,0.412c-0.734,0-1.413-0.137-2.037-0.412c-0.625-0.277-1.175-0.645-1.652-1.104
		s-0.853-1.008-1.128-1.65c-0.275-0.643-0.414-1.332-0.414-2.064c0-0.734,0.138-1.422,0.414-2.066
		c0.275-0.641,0.651-1.191,1.128-1.652c0.477-0.457,1.027-0.824,1.652-1.1c0.624-0.275,1.303-0.412,2.037-0.412
		c0.697,0,1.368,0.137,2.01,0.412s1.202,0.643,1.679,1.1c0.477,0.461,0.854,1.012,1.129,1.652
		C116.641,330.504,116.778,331.191,116.778,331.926z"/>
	<path fill="#FE5E14" d="M140.786,347.727c0,0.883,0.458,1.516,1.376,1.9c0.917,0.385,2.588,0.705,5.011,0.963
		c2.79,0.295,5.064,1.129,6.827,2.506c1.763,1.377,2.644,3.295,2.644,5.754v0.328c0,2.719-0.991,4.885-2.974,6.498
		c-1.982,1.617-4.771,2.424-8.369,2.424c-2.129,0-3.947-0.273-5.452-0.826c-1.505-0.551-2.752-1.238-3.744-2.064
		c-0.99-0.824-1.753-1.742-2.285-2.754c-0.532-1.01-0.89-1.99-1.073-2.945l6.387-2.092c0.293,1.174,0.909,2.203,1.845,3.084
		c0.935,0.879,2.376,1.32,4.322,1.32c1.725,0,2.909-0.266,3.551-0.799c0.642-0.529,0.963-1.109,0.963-1.732
		c0-0.369-0.082-0.709-0.248-1.02c-0.165-0.312-0.468-0.605-0.908-0.881c-0.441-0.275-1.038-0.504-1.79-0.688
		c-0.753-0.186-1.698-0.332-2.836-0.441c-3.083-0.256-5.534-1.055-7.351-2.396c-1.816-1.338-2.726-3.311-2.726-5.918v-0.332
		c0-1.357,0.294-2.549,0.881-3.578c0.586-1.027,1.358-1.898,2.312-2.615c0.954-0.715,2.055-1.256,3.304-1.623
		c1.248-0.367,2.533-0.551,3.854-0.551c1.725,0,3.22,0.213,4.486,0.633c1.268,0.424,2.341,0.973,3.222,1.652s1.596,1.43,2.147,2.258
		c0.55,0.824,0.972,1.623,1.266,2.395l-6.276,2.533c-0.33-0.992-0.9-1.771-1.708-2.34c-0.807-0.57-1.854-0.854-3.138-0.854
		c-1.175,0-2.057,0.211-2.643,0.633C141.079,346.58,140.786,347.104,140.786,347.727z"/>
	<path fill="#FE5E14" d="M165.013,340.02h8.093v-11.232h6.938v11.232h9.855v6.607h-9.855v12.443c0,1.1,0.496,1.65,1.486,1.65h7.379
		v6.607h-11.562c-1.249,0-2.268-0.402-3.057-1.211c-0.79-0.807-1.184-1.834-1.184-3.084v-16.406h-8.093V340.02z"/>
	<path fill="#FE5E14" d="M198.159,340.02h11.562v3.963h0.991c0.514-1.504,1.385-2.672,2.615-3.496
		c1.229-0.826,2.706-1.238,4.434-1.238c2.715,0,4.899,0.852,6.552,2.561c1.65,1.707,2.477,4.303,2.477,7.791v1.211l-7.157,0.662
		v-0.771c0-1.504-0.385-2.707-1.156-3.607c-0.771-0.9-1.928-1.348-3.469-1.348c-1.542,0-2.753,0.531-3.635,1.596
		c-0.88,1.066-1.321,2.588-1.321,4.57v8.809h6.276v6.607h-18.829v-6.607h5.614v-14.094h-4.954V340.02z"/>
	<path fill="#FE5E14" d="M233.675,360.721h9.25v-14.094h-8.59v-6.607h15.527v20.701h7.928v6.607h-24.115V360.721z M251.569,331.926
		c0,0.732-0.14,1.422-0.414,2.064s-0.651,1.191-1.127,1.65c-0.479,0.459-1.038,0.826-1.682,1.104
		c-0.642,0.275-1.312,0.412-2.01,0.412c-0.733,0-1.413-0.137-2.035-0.412c-0.625-0.277-1.176-0.645-1.654-1.104
		c-0.475-0.459-0.853-1.008-1.128-1.65c-0.273-0.643-0.412-1.332-0.412-2.064c0-0.734,0.139-1.422,0.412-2.066
		c0.275-0.641,0.653-1.191,1.128-1.652c0.479-0.457,1.029-0.824,1.654-1.1c0.622-0.275,1.302-0.412,2.035-0.412
		c0.698,0,1.368,0.137,2.01,0.412c0.644,0.275,1.203,0.643,1.682,1.1c0.476,0.461,0.853,1.012,1.127,1.652
		C251.43,330.504,251.569,331.191,251.569,331.926z"/>
	<path fill="#FE5E14" d="M293.525,357.307c-0.625,3.23-2.102,5.838-4.431,7.82c-2.333,1.98-5.443,2.973-9.333,2.973
		c-2.02,0-3.901-0.312-5.645-0.938c-1.745-0.623-3.259-1.521-4.543-2.697c-1.285-1.174-2.294-2.623-3.028-4.35
		c-0.734-1.725-1.101-3.688-1.101-5.891v-0.66c0-2.203,0.366-4.186,1.101-5.949c0.734-1.76,1.752-3.266,3.056-4.512
		c1.302-1.248,2.827-2.203,4.57-2.863c1.742-0.662,3.606-0.992,5.59-0.992c3.816,0,6.909,0.992,9.276,2.973
		c2.369,1.982,3.862,4.59,4.487,7.82l-6.827,1.76c-0.22-1.615-0.918-3.008-2.092-4.186c-1.175-1.172-2.827-1.76-4.956-1.76
		c-0.991,0-1.927,0.184-2.807,0.549c-0.883,0.369-1.652,0.893-2.314,1.57c-0.66,0.68-1.183,1.506-1.568,2.479
		s-0.578,2.064-0.578,3.275v0.33c0,1.211,0.192,2.285,0.578,3.223c0.386,0.936,0.908,1.717,1.568,2.34
		c0.662,0.623,1.432,1.092,2.314,1.402c0.88,0.312,1.815,0.469,2.807,0.469c2.129,0,3.752-0.531,4.873-1.598
		c1.119-1.062,1.845-2.494,2.175-4.293L293.525,357.307z"/>
	<path fill="#FE5E14" d="M299.803,340.02h8.095v-11.232h6.938v11.232h9.856v6.607h-9.856v12.443c0,1.1,0.495,1.65,1.486,1.65h7.379
		v6.607h-11.563c-1.247,0-2.267-0.402-3.056-1.211c-0.788-0.807-1.184-1.834-1.184-3.084v-16.406h-8.095V340.02z"/>
	<path fill="#FE5E14" d="M360.544,350.811v-11.453l9.582-2.643v-0.99h-19.161v-6.938h25.106V340.9l-10.239,2.973v0.99h1.321
		c1.358,0,2.698,0.211,4.019,0.635c1.323,0.422,2.487,1.072,3.496,1.953c1.01,0.881,1.826,1.975,2.45,3.277
		c0.623,1.303,0.938,2.836,0.938,4.598v0.66c0,1.725-0.286,3.322-0.854,4.791c-0.57,1.469-1.414,2.742-2.534,3.824
		c-1.12,1.084-2.505,1.938-4.157,2.561c-1.652,0.625-3.542,0.938-5.672,0.938c-2.165,0-4.129-0.348-5.89-1.045
		c-1.763-0.697-3.259-1.652-4.487-2.863c-1.23-1.213-2.177-2.605-2.836-4.188c-0.661-1.576-0.991-3.246-0.991-5.01v-2.311h7.267
		v1.98c0,1.764,0.569,3.287,1.708,4.57c1.138,1.287,2.844,1.928,5.121,1.928c1.943,0,3.44-0.494,4.487-1.486s1.568-2.295,1.568-3.91
		c0-1.725-0.561-2.982-1.679-3.771c-1.121-0.787-2.541-1.184-4.269-1.184H360.544z"/>
</g>
<g>
	<polygon fill="#FFFFFF" stroke="#FE5E14" stroke-miterlimit="10" points="67.851,294.279 67.851,75.547 111.857,119.384 
		111.857,294.279 	"/>
	<polygon fill="#FFFFFF" stroke="#FE5E14" stroke-miterlimit="10" points="111.857,119.384 199.044,119.384 154.86,75.367 
		67.851,75.367 	"/>
	<polygon fill="#FFFFFF" stroke="#FE5E14" stroke-miterlimit="10" points="198.809,75.425 330.476,75.425 373.891,119.313 
		242.225,119.313 	"/>
	<polygon fill="#FFFFFF" stroke="#FE5E14" stroke-miterlimit="10" points="330.476,75.425 242.698,162.73 286.587,207.091 
		373.891,119.313 	"/>
	<polygon fill="#FFFFFF" stroke="#FE5E14" stroke-miterlimit="10" points="286.587,207.091 373.891,207.091 330.476,163.203 	"/>
	<g>
		<path fill="#FE5E14" d="M203.198,118.542c-0.005-0.025-0.015-0.047-0.021-0.072c-0.048-0.218-0.116-0.432-0.198-0.641
			c-0.029-0.075-0.063-0.146-0.097-0.219c-0.074-0.16-0.158-0.314-0.252-0.465c-0.04-0.063-0.078-0.129-0.121-0.19
			c-0.135-0.191-0.281-0.374-0.449-0.543c-0.008-0.008-0.015-0.018-0.021-0.026c0,0-0.002-0.002-0.003-0.003l-44.184-44.017
			c-0.794-0.792-1.871-1.236-2.992-1.236h-87.01c-1.714,0-3.26,1.033-3.916,2.617c-0.227,0.546-0.324,1.121-0.314,1.688
			c-0.001,0.038-0.008,0.075-0.008,0.114v218.732c0,1.125,0.446,2.203,1.242,2.998c0.795,0.795,1.873,1.242,2.997,1.242
			l44.007-0.002h43.537c0.032,0,0.088,0.002,0.171,0.002c2.161,0,21.428-0.387,34.929-13.705
			c8.486-8.373,12.789-19.916,12.789-34.307V119.384c0-0.028-0.008-0.054-0.009-0.081
			C203.27,119.047,203.248,118.792,203.198,118.542z M153.109,79.606l35.673,35.539h-75.169l-35.53-35.539H153.109z M72.09,85.753
			l35.529,35.391v168.895l-35.529,0.002V85.753z M184.589,278.729c-11.44,11.336-28.904,11.277-29.138,11.311h-39.354V123.623
			h78.708v126.885C194.805,262.518,191.368,272.012,184.589,278.729z"/>
		<path fill="#FE5E14" d="M378.054,206.259c-0.008-0.044-0.023-0.084-0.034-0.127c-0.046-0.2-0.106-0.396-0.183-0.588
			c-0.03-0.077-0.063-0.153-0.098-0.228c-0.074-0.161-0.158-0.312-0.252-0.464c-0.04-0.063-0.076-0.128-0.119-0.19
			c-0.137-0.195-0.286-0.384-0.457-0.557l-0.012-0.013c-0.004-0.002-0.007-0.005-0.01-0.008l-40.551-40.992l40.43-40.648
			c0.853-0.777,1.397-1.886,1.397-3.131c0-0.861-0.275-1.649-0.716-2.318c-0.002-0.001-0.002-0.003-0.003-0.005
			c-0.149-0.226-0.316-0.432-0.505-0.625c-0.013-0.013-0.02-0.027-0.031-0.039l-43.416-43.889c-0.199-0.2-0.415-0.379-0.646-0.535
			c-0.134-0.09-0.28-0.155-0.423-0.229c-0.104-0.054-0.201-0.121-0.31-0.166c-0.137-0.058-0.285-0.089-0.429-0.132
			c-0.123-0.038-0.24-0.087-0.366-0.113c-0.127-0.025-0.259-0.026-0.387-0.04c-0.148-0.016-0.293-0.045-0.442-0.045
			c-0.003,0-0.006,0-0.009,0s-0.006,0-0.008,0H198.809c-1.714,0-3.26,1.03-3.92,2.611c-0.66,1.582-0.305,3.405,0.9,4.623
			l43.416,43.889c0.798,0.807,1.885,1.26,3.02,1.26h33.832l-36.354,36.158c-1.66,1.651-1.672,4.334-0.025,5.999l43.89,44.362
			c0.021,0.021,0.048,0.037,0.071,0.06c0.172,0.166,0.353,0.32,0.551,0.454c0.011,0.009,0.019,0.019,0.03,0.025
			c0.207,0.139,0.43,0.253,0.658,0.354c0.066,0.029,0.131,0.052,0.199,0.078c0.174,0.066,0.353,0.121,0.536,0.164
			c0.071,0.017,0.141,0.036,0.213,0.049c0.242,0.044,0.488,0.073,0.738,0.074c0.006,0,0.011,0.002,0.017,0.002
			c0.001,0,0.004,0,0.006,0h83.057v38.696c0,38.564-38.03,39.164-39.642,39.172h-87.304c-2.347,0-4.248,1.9-4.248,4.246
			s1.901,4.248,4.248,4.248h87.304c0.481,0,48.137-0.545,48.137-47.666v-42.944c0-0.026-0.007-0.051-0.009-0.078
			C378.126,206.76,378.104,206.508,378.054,206.259z M330.45,81.44l33.265,33.626h-67.073L330.45,81.44z M243.997,115.066
			l-35.013-35.395h111.199l-35.587,35.395H243.997z M288.102,123.561h75.575l-77.082,77.5l-37.898-38.308L288.102,123.561z
			 M296.84,202.844l33.619-33.619l33.256,33.619H296.84z"/>
	</g>
</g>
<g>
	<path fill="#FE5E14" d="M373.891,123.561h-95.799c-2.347,0-4.247-1.902-4.247-4.248s1.9-4.247,4.247-4.247h95.799
		c2.347,0,4.248,1.901,4.248,4.247S376.237,123.561,373.891,123.561z"/>
</g>
<polyline fill="none" stroke="#000000" stroke-miterlimit="10" points="-106.934,141.668 -106.934,69.335 -93.934,69.335 
	-121.602,69.335 "/>
<polyline fill="none" stroke="#000000" stroke-miterlimit="10" points="-93.601,281.353 -106.934,281.353 -106.934,201.019 "/>
<line fill="none" stroke="#000000" stroke-miterlimit="10" x1="-106.934" y1="281.353" x2="-121.934" y2="281.353"/>
<text transform="matrix(1 0 0 1 -176.1084 168.1675)"><tspan x="0" y="0" font-family="'MyriadPro-Regular'" font-size="12">Use this shape for all</tspan><tspan x="0" y="14.4" font-family="'MyriadPro-Regular'" font-size="12">Innovation projects graphics</tspan></text>
</svg>
