<?xml version="1.0" encoding="utf-8"?>
<!-- Generator: Adobe Illustrator 16.0.0, SVG Export Plug-In . SVG Version: 6.00 Build 0)  -->
<!DOCTYPE svg PUBLIC "-//W3C//DTD SVG 1.1//EN" "http://www.w3.org/Graphics/SVG/1.1/DTD/svg11.dtd">
<svg version="1.1" id="Layer_1" xmlns="http://www.w3.org/2000/svg" xmlns:xlink="http://www.w3.org/1999/xlink" x="0px" y="0px"
	 width="416px" height="219px" viewBox="0 0 416 219" enable-background="new 0 0 416 219" xml:space="preserve">
<g>
	<rect x="11.6" y="13" fill="none" stroke="#4AFFFF" stroke-miterlimit="10" width="196" height="196"/>
	<line fill="none" stroke="#4AFFFF" stroke-miterlimit="10" x1="11.6" y1="176.317" x2="207.6" y2="176.317"/>
	<line fill="none" stroke="#4AFFFF" stroke-miterlimit="10" x1="11.6" y1="143.683" x2="207.6" y2="143.683"/>
	<line fill="none" stroke="#4AFFFF" stroke-miterlimit="10" x1="11.6" y1="111" x2="207.6" y2="111"/>
	<line fill="none" stroke="#4AFFFF" stroke-miterlimit="10" x1="11.6" y1="78.317" x2="207.6" y2="78.317"/>
	<line fill="none" stroke="#4AFFFF" stroke-miterlimit="10" x1="11.6" y1="45.683" x2="207.6" y2="45.683"/>
	<line fill="none" stroke="#4AFFFF" stroke-miterlimit="10" x1="174.917" y1="13" x2="174.917" y2="209"/>
	<line fill="none" stroke="#4AFFFF" stroke-miterlimit="10" x1="142.283" y1="13" x2="142.283" y2="209"/>
	<line fill="none" stroke="#4AFFFF" stroke-miterlimit="10" x1="109.6" y1="13" x2="109.6" y2="209"/>
	<line fill="none" stroke="#4AFFFF" stroke-miterlimit="10" x1="76.917" y1="13" x2="76.917" y2="209"/>
	<line fill="none" stroke="#4AFFFF" stroke-miterlimit="10" x1="44.283" y1="13" x2="44.283" y2="209"/>
</g>
<g>
	<rect x="207.599" y="13" fill="none" stroke="#4AFFFF" stroke-miterlimit="10" width="196" height="196"/>
	<line fill="none" stroke="#4AFFFF" stroke-miterlimit="10" x1="207.599" y1="176.317" x2="403.599" y2="176.317"/>
	<line fill="none" stroke="#4AFFFF" stroke-miterlimit="10" x1="207.599" y1="143.683" x2="403.599" y2="143.683"/>
	<line fill="none" stroke="#4AFFFF" stroke-miterlimit="10" x1="207.599" y1="111" x2="403.599" y2="111"/>
	<line fill="none" stroke="#4AFFFF" stroke-miterlimit="10" x1="207.599" y1="78.317" x2="403.599" y2="78.317"/>
	<line fill="none" stroke="#4AFFFF" stroke-miterlimit="10" x1="207.599" y1="45.683" x2="403.599" y2="45.683"/>
	<line fill="none" stroke="#4AFFFF" stroke-miterlimit="10" x1="370.917" y1="13" x2="370.917" y2="209"/>
	<line fill="none" stroke="#4AFFFF" stroke-miterlimit="10" x1="338.282" y1="13" x2="338.282" y2="209"/>
	<line fill="none" stroke="#4AFFFF" stroke-miterlimit="10" x1="305.599" y1="13" x2="305.599" y2="209"/>
	<line fill="none" stroke="#4AFFFF" stroke-miterlimit="10" x1="272.917" y1="13" x2="272.917" y2="209"/>
	<line fill="none" stroke="#4AFFFF" stroke-miterlimit="10" x1="240.282" y1="13" x2="240.282" y2="209"/>
</g>
</svg>
