<?xml version="1.0" encoding="utf-8"?>
<!-- Generator: Adobe Illustrator 16.0.0, SVG Export Plug-In . SVG Version: 6.00 Build 0)  -->
<!DOCTYPE svg PUBLIC "-//W3C//DTD SVG 1.1//EN" "http://www.w3.org/Graphics/SVG/1.1/DTD/svg11.dtd">
<svg version="1.1" id="Layer_1" xmlns="http://www.w3.org/2000/svg" xmlns:xlink="http://www.w3.org/1999/xlink" x="0px" y="0px"
	 width="392.917px" height="196.001px" viewBox="0 0 392.917 196.001" enable-background="new 0 0 392.917 196.001"
	 xml:space="preserve">
<g>
	<g>
		<rect x="-0.082" y="0.001" fill="#FFFFFF" stroke="#606060" stroke-miterlimit="10" width="196" height="196"/>
		<line fill="#FFFFFF" stroke="#606060" stroke-miterlimit="10" x1="-0.082" y1="163.317" x2="195.918" y2="163.317"/>
		<line fill="#FFFFFF" stroke="#606060" stroke-miterlimit="10" x1="-0.082" y1="130.685" x2="195.918" y2="130.685"/>
		<line fill="#FFFFFF" stroke="#606060" stroke-miterlimit="10" x1="-0.082" y1="98.001" x2="195.918" y2="98.001"/>
		<line fill="#FFFFFF" stroke="#606060" stroke-miterlimit="10" x1="-0.082" y1="65.318" x2="195.918" y2="65.318"/>
		<line fill="#FFFFFF" stroke="#606060" stroke-miterlimit="10" x1="-0.082" y1="32.684" x2="195.918" y2="32.684"/>
		<line fill="#FFFFFF" stroke="#606060" stroke-miterlimit="10" x1="163.236" y1="0.001" x2="163.236" y2="196.001"/>
		<line fill="#FFFFFF" stroke="#606060" stroke-miterlimit="10" x1="130.601" y1="0.001" x2="130.601" y2="196.001"/>
		<line fill="#FFFFFF" stroke="#606060" stroke-miterlimit="10" x1="97.918" y1="0.001" x2="97.918" y2="196.001"/>
		<line fill="#FFFFFF" stroke="#606060" stroke-miterlimit="10" x1="65.236" y1="0.001" x2="65.236" y2="196.001"/>
		<line fill="#FFFFFF" stroke="#606060" stroke-miterlimit="10" x1="32.601" y1="0.001" x2="32.601" y2="196.001"/>
	</g>
	<g>
		<polyline fill="#FFFFFF" stroke="#606060" stroke-miterlimit="10" points="196.917,196.001 392.917,196.001 392.917,0.001 
			196.568,0.001 		"/>
		<line fill="#FFFFFF" stroke="#606060" stroke-miterlimit="10" x1="196.917" y1="163.317" x2="392.917" y2="163.317"/>
		<line fill="#FFFFFF" stroke="#606060" stroke-miterlimit="10" x1="196.917" y1="130.685" x2="392.917" y2="130.685"/>
		<line fill="#FFFFFF" stroke="#606060" stroke-miterlimit="10" x1="196.917" y1="98.001" x2="392.917" y2="98.001"/>
		<line fill="#FFFFFF" stroke="#606060" stroke-miterlimit="10" x1="196.917" y1="65.318" x2="392.917" y2="65.318"/>
		<line fill="#FFFFFF" stroke="#606060" stroke-miterlimit="10" x1="196.917" y1="32.684" x2="392.917" y2="32.684"/>
		<line fill="#FFFFFF" stroke="#606060" stroke-miterlimit="10" x1="360.235" y1="0.001" x2="360.235" y2="196.001"/>
		<line fill="#FFFFFF" stroke="#606060" stroke-miterlimit="10" x1="327.601" y1="0.001" x2="327.601" y2="196.001"/>
		<line fill="#FFFFFF" stroke="#606060" stroke-miterlimit="10" x1="294.917" y1="0.001" x2="294.917" y2="196.001"/>
		<line fill="#FFFFFF" stroke="#606060" stroke-miterlimit="10" x1="262.235" y1="0.001" x2="262.235" y2="196.001"/>
		<line fill="#FFFFFF" stroke="#606060" stroke-miterlimit="10" x1="229.601" y1="0.001" x2="229.601" y2="196.001"/>
	</g>
</g>
<g>
	<g>
		<rect x="-1.083" y="0.001" fill="#FFFFFF" stroke="#606060" stroke-miterlimit="10" width="196" height="196"/>
		<line fill="#FFFFFF" stroke="#606060" stroke-miterlimit="10" x1="-1.083" y1="163.317" x2="194.917" y2="163.317"/>
		<line fill="#FFFFFF" stroke="#606060" stroke-miterlimit="10" x1="-1.083" y1="130.685" x2="194.917" y2="130.685"/>
		<line fill="#FFFFFF" stroke="#606060" stroke-miterlimit="10" x1="-1.083" y1="98.001" x2="194.917" y2="98.001"/>
		<line fill="#FFFFFF" stroke="#606060" stroke-miterlimit="10" x1="-1.083" y1="65.318" x2="194.917" y2="65.318"/>
		<line fill="#FFFFFF" stroke="#606060" stroke-miterlimit="10" x1="-1.083" y1="32.684" x2="194.917" y2="32.684"/>
		<line fill="#FFFFFF" stroke="#606060" stroke-miterlimit="10" x1="162.235" y1="0.001" x2="162.235" y2="196.001"/>
		<line fill="#FFFFFF" stroke="#606060" stroke-miterlimit="10" x1="129.6" y1="0.001" x2="129.6" y2="196.001"/>
		<line fill="#FFFFFF" stroke="#606060" stroke-miterlimit="10" x1="96.917" y1="0.001" x2="96.917" y2="196.001"/>
		<line fill="#FFFFFF" stroke="#606060" stroke-miterlimit="10" x1="64.235" y1="0.001" x2="64.235" y2="196.001"/>
		<line fill="#FFFFFF" stroke="#606060" stroke-miterlimit="10" x1="31.6" y1="0.001" x2="31.6" y2="196.001"/>
	</g>
	<g>
		<polyline fill="#FFFFFF" stroke="#606060" stroke-miterlimit="10" points="195.916,196.001 391.916,196.001 391.916,0.001 
			195.567,0.001 		"/>
		<line fill="#FFFFFF" stroke="#606060" stroke-miterlimit="10" x1="195.916" y1="163.317" x2="391.916" y2="163.317"/>
		<line fill="#FFFFFF" stroke="#606060" stroke-miterlimit="10" x1="195.916" y1="130.685" x2="391.916" y2="130.685"/>
		<line fill="#FFFFFF" stroke="#606060" stroke-miterlimit="10" x1="195.916" y1="98.001" x2="391.916" y2="98.001"/>
		<line fill="#FFFFFF" stroke="#606060" stroke-miterlimit="10" x1="195.916" y1="65.318" x2="391.916" y2="65.318"/>
		<line fill="#FFFFFF" stroke="#606060" stroke-miterlimit="10" x1="195.916" y1="32.684" x2="391.916" y2="32.684"/>
		<line fill="#FFFFFF" stroke="#606060" stroke-miterlimit="10" x1="359.234" y1="0.001" x2="359.234" y2="196.001"/>
		<line fill="#FFFFFF" stroke="#606060" stroke-miterlimit="10" x1="326.6" y1="0.001" x2="326.6" y2="196.001"/>
		<line fill="#FFFFFF" stroke="#606060" stroke-miterlimit="10" x1="293.916" y1="0.001" x2="293.916" y2="196.001"/>
		<line fill="#FFFFFF" stroke="#606060" stroke-miterlimit="10" x1="261.234" y1="0.001" x2="261.234" y2="196.001"/>
		<line fill="#FFFFFF" stroke="#606060" stroke-miterlimit="10" x1="228.6" y1="0.001" x2="228.6" y2="196.001"/>
	</g>
</g>
<g>
	<g>
		<rect x="-1" y="0.917" fill="#FFFFFF" stroke="#606060" stroke-miterlimit="10" width="196.044" height="196.044"/>
		<line fill="#FFFFFF" stroke="#606060" stroke-miterlimit="10" x1="-1" y1="164.27" x2="195.044" y2="164.27"/>
		<line fill="#FFFFFF" stroke="#606060" stroke-miterlimit="10" x1="-1" y1="131.63" x2="195.044" y2="131.63"/>
		<line fill="#FFFFFF" stroke="#606060" stroke-miterlimit="10" x1="-1" y1="98.938" x2="195.044" y2="98.938"/>
		<line fill="#FFFFFF" stroke="#606060" stroke-miterlimit="10" x1="-1" y1="66.248" x2="195.044" y2="66.248"/>
		<line fill="#FFFFFF" stroke="#606060" stroke-miterlimit="10" x1="-1" y1="33.607" x2="195.044" y2="33.607"/>
		<line fill="#FFFFFF" stroke="#606060" stroke-miterlimit="10" x1="162.355" y1="0.917" x2="162.355" y2="196.961"/>
		<line fill="#FFFFFF" stroke="#606060" stroke-miterlimit="10" x1="129.712" y1="0.917" x2="129.712" y2="196.961"/>
		<line fill="#FFFFFF" stroke="#606060" stroke-miterlimit="10" x1="97.022" y1="0.917" x2="97.022" y2="196.961"/>
		<line fill="#FFFFFF" stroke="#606060" stroke-miterlimit="10" x1="64.333" y1="0.917" x2="64.333" y2="196.961"/>
		<line fill="#FFFFFF" stroke="#606060" stroke-miterlimit="10" x1="31.69" y1="0.917" x2="31.69" y2="196.961"/>
	</g>
	<g>
		<polyline fill="#FFFFFF" stroke="#606060" stroke-miterlimit="10" points="196.043,196.961 392.087,196.961 392.087,0.917 
			195.694,0.917 		"/>
		<line fill="#FFFFFF" stroke="#606060" stroke-miterlimit="10" x1="196.043" y1="164.27" x2="392.087" y2="164.27"/>
		<line fill="#FFFFFF" stroke="#606060" stroke-miterlimit="10" x1="196.043" y1="131.63" x2="392.087" y2="131.63"/>
		<line fill="#FFFFFF" stroke="#606060" stroke-miterlimit="10" x1="196.043" y1="98.938" x2="392.087" y2="98.938"/>
		<line fill="#FFFFFF" stroke="#606060" stroke-miterlimit="10" x1="196.043" y1="66.248" x2="392.087" y2="66.248"/>
		<line fill="#FFFFFF" stroke="#606060" stroke-miterlimit="10" x1="196.043" y1="33.607" x2="392.087" y2="33.607"/>
		<line fill="#FFFFFF" stroke="#606060" stroke-miterlimit="10" x1="359.398" y1="0.917" x2="359.398" y2="196.961"/>
		<line fill="#FFFFFF" stroke="#606060" stroke-miterlimit="10" x1="326.756" y1="0.917" x2="326.756" y2="196.961"/>
		<line fill="#FFFFFF" stroke="#606060" stroke-miterlimit="10" x1="294.065" y1="0.917" x2="294.065" y2="196.961"/>
		<line fill="#FFFFFF" stroke="#606060" stroke-miterlimit="10" x1="261.376" y1="0.917" x2="261.376" y2="196.961"/>
		<line fill="#FFFFFF" stroke="#606060" stroke-miterlimit="10" x1="228.734" y1="0.917" x2="228.734" y2="196.961"/>
	</g>
</g>
</svg>
