<?xml version="1.0" encoding="utf-8"?>
<!-- Generator: Adobe Illustrator 16.0.0, SVG Export Plug-In . SVG Version: 6.00 Build 0)  -->
<!DOCTYPE svg PUBLIC "-//W3C//DTD SVG 1.1//EN" "http://www.w3.org/Graphics/SVG/1.1/DTD/svg11.dtd">
<svg version="1.1" id="Layer_1" xmlns="http://www.w3.org/2000/svg" xmlns:xlink="http://www.w3.org/1999/xlink" x="0px" y="0px"
	 width="395.5px" height="198px" viewBox="0 0 395.5 198" enable-background="new 0 0 395.5 198" xml:space="preserve">
<g>
	<g opacity="0.35">
		<rect x="0.97" fill="none" stroke="#6D6E71" stroke-width="2" stroke-miterlimit="10" width="196" height="196"/>
		<line fill="none" stroke="#6D6E71" stroke-width="2" stroke-miterlimit="10" x1="0.97" y1="163.316" x2="196.97" y2="163.316"/>
		<line fill="none" stroke="#6D6E71" stroke-width="2" stroke-miterlimit="10" x1="0.97" y1="130.684" x2="196.97" y2="130.684"/>
		<line fill="none" stroke="#6D6E71" stroke-width="2" stroke-miterlimit="10" x1="0.97" y1="98" x2="196.97" y2="98"/>
		<line fill="none" stroke="#6D6E71" stroke-width="2" stroke-miterlimit="10" x1="0.97" y1="65.317" x2="196.97" y2="65.317"/>
		<line fill="none" stroke="#6D6E71" stroke-width="2" stroke-miterlimit="10" x1="0.97" y1="32.683" x2="196.97" y2="32.683"/>
		<line fill="none" stroke="#6D6E71" stroke-width="2" stroke-miterlimit="10" x1="164.288" y1="0" x2="164.288" y2="196"/>
		<line fill="none" stroke="#6D6E71" stroke-width="2" stroke-miterlimit="10" x1="131.653" y1="0" x2="131.653" y2="196"/>
		<line fill="none" stroke="#6D6E71" stroke-width="2" stroke-miterlimit="10" x1="98.97" y1="0" x2="98.97" y2="196"/>
		<line fill="none" stroke="#6D6E71" stroke-width="2" stroke-miterlimit="10" x1="66.288" y1="0" x2="66.288" y2="196"/>
		<line fill="none" stroke="#6D6E71" stroke-width="2" stroke-miterlimit="10" x1="33.653" y1="0" x2="33.653" y2="196"/>
	</g>
	<g opacity="0.35">
		<polyline fill="none" stroke="#6D6E71" stroke-width="2" stroke-miterlimit="10" points="197.969,196 393.969,196 393.969,0 
			197.62,0 		"/>
		
			<line fill="none" stroke="#6D6E71" stroke-width="2" stroke-miterlimit="10" x1="197.969" y1="163.316" x2="393.969" y2="163.316"/>
		
			<line fill="none" stroke="#6D6E71" stroke-width="2" stroke-miterlimit="10" x1="197.969" y1="130.684" x2="393.969" y2="130.684"/>
		<line fill="none" stroke="#6D6E71" stroke-width="2" stroke-miterlimit="10" x1="197.969" y1="98" x2="393.969" y2="98"/>
		<line fill="none" stroke="#6D6E71" stroke-width="2" stroke-miterlimit="10" x1="197.969" y1="65.317" x2="393.969" y2="65.317"/>
		<line fill="none" stroke="#6D6E71" stroke-width="2" stroke-miterlimit="10" x1="197.969" y1="32.683" x2="393.969" y2="32.683"/>
		<line fill="none" stroke="#6D6E71" stroke-width="2" stroke-miterlimit="10" x1="361.287" y1="0" x2="361.287" y2="196"/>
		<line fill="none" stroke="#6D6E71" stroke-width="2" stroke-miterlimit="10" x1="328.652" y1="0" x2="328.652" y2="196"/>
		<line fill="none" stroke="#6D6E71" stroke-width="2" stroke-miterlimit="10" x1="295.969" y1="0" x2="295.969" y2="196"/>
		<line fill="none" stroke="#6D6E71" stroke-width="2" stroke-miterlimit="10" x1="263.287" y1="0" x2="263.287" y2="196"/>
		<line fill="none" stroke="#6D6E71" stroke-width="2" stroke-miterlimit="10" x1="230.652" y1="0" x2="230.652" y2="196"/>
	</g>
</g>
</svg>
