<?xml version="1.0" encoding="utf-8"?>
<!-- Generator: Adobe Illustrator 16.0.0, SVG Export Plug-In . SVG Version: 6.00 Build 0)  -->
<!DOCTYPE svg PUBLIC "-//W3C//DTD SVG 1.1//EN" "http://www.w3.org/Graphics/SVG/1.1/DTD/svg11.dtd">
<svg version="1.1" id="Layer_1" xmlns="http://www.w3.org/2000/svg" xmlns:xlink="http://www.w3.org/1999/xlink" x="0px" y="0px"
	 width="1080px" height="540px" viewBox="0 0 1080 540" enable-background="new 0 0 1080 540" xml:space="preserve">
<g opacity="0.35">
	<rect x="6.006" fill="none" stroke="#4AFFFF" stroke-width="2" stroke-miterlimit="10" width="536.816" height="536.817"/>
	<line fill="none" stroke="#4AFFFF" stroke-width="2" stroke-miterlimit="10" x1="6.006" y1="447.304" x2="542.822" y2="447.304"/>
	<line fill="none" stroke="#4AFFFF" stroke-width="2" stroke-miterlimit="10" x1="6.006" y1="357.922" x2="542.822" y2="357.922"/>
	<line fill="none" stroke="#4AFFFF" stroke-width="2" stroke-miterlimit="10" x1="6.006" y1="268.409" x2="542.822" y2="268.409"/>
	<line fill="none" stroke="#4AFFFF" stroke-width="2" stroke-miterlimit="10" x1="6.006" y1="178.895" x2="542.822" y2="178.895"/>
	<line fill="none" stroke="#4AFFFF" stroke-width="2" stroke-miterlimit="10" x1="6.006" y1="89.514" x2="542.822" y2="89.514"/>
	<line fill="none" stroke="#4AFFFF" stroke-width="2" stroke-miterlimit="10" x1="453.308" y1="0" x2="453.308" y2="536.817"/>
	<line fill="none" stroke="#4AFFFF" stroke-width="2" stroke-miterlimit="10" x1="363.927" y1="0" x2="363.927" y2="536.817"/>
	<line fill="none" stroke="#4AFFFF" stroke-width="2" stroke-miterlimit="10" x1="274.415" y1="0" x2="274.415" y2="536.817"/>
	<line fill="none" stroke="#4AFFFF" stroke-width="2" stroke-miterlimit="10" x1="184.901" y1="0" x2="184.901" y2="536.817"/>
	<line fill="none" stroke="#4AFFFF" stroke-width="2" stroke-miterlimit="10" x1="95.519" y1="0" x2="95.519" y2="536.817"/>
</g>
<g opacity="0.35">
	<polyline fill="none" stroke="#4AFFFF" stroke-width="2" stroke-miterlimit="10" points="543.184,0 1080,0 1080,536.817 	"/>
	<line fill="none" stroke="#4AFFFF" stroke-width="2" stroke-miterlimit="10" x1="543.184" y1="447.304" x2="1080" y2="447.304"/>
	<line fill="none" stroke="#4AFFFF" stroke-width="2" stroke-miterlimit="10" x1="543.184" y1="357.922" x2="1080" y2="357.922"/>
	<line fill="none" stroke="#4AFFFF" stroke-width="2" stroke-miterlimit="10" x1="543.184" y1="268.409" x2="1080" y2="268.409"/>
	<line fill="none" stroke="#4AFFFF" stroke-width="2" stroke-miterlimit="10" x1="543.184" y1="178.895" x2="1080" y2="178.895"/>
	<line fill="none" stroke="#4AFFFF" stroke-width="2" stroke-miterlimit="10" x1="543.184" y1="89.514" x2="1080" y2="89.514"/>
	<line fill="none" stroke="#4AFFFF" stroke-width="2" stroke-miterlimit="10" x1="990.486" y1="0" x2="990.486" y2="536.817"/>
	<line fill="none" stroke="#4AFFFF" stroke-width="2" stroke-miterlimit="10" x1="901.104" y1="0" x2="901.104" y2="536.817"/>
	<line fill="none" stroke="#4AFFFF" stroke-width="2" stroke-miterlimit="10" x1="811.592" y1="0" x2="811.592" y2="536.817"/>
	<line fill="none" stroke="#4AFFFF" stroke-width="2" stroke-miterlimit="10" x1="722.078" y1="0" x2="722.078" y2="536.817"/>
	<line fill="none" stroke="#4AFFFF" stroke-width="2" stroke-miterlimit="10" x1="632.697" y1="0" x2="632.697" y2="536.817"/>
</g>
</svg>
