<?xml version="1.0" encoding="utf-8"?>
<!-- Generator: Adobe Illustrator 16.0.0, SVG Export Plug-In . SVG Version: 6.00 Build 0)  -->
<!DOCTYPE svg PUBLIC "-//W3C//DTD SVG 1.1//EN" "http://www.w3.org/Graphics/SVG/1.1/DTD/svg11.dtd">
<svg version="1.1" id="Layer_1" xmlns="http://www.w3.org/2000/svg" xmlns:xlink="http://www.w3.org/1999/xlink" x="0px" y="0px"
	 width="216px" height="216px" viewBox="0 0 216 216" enable-background="new 0 0 216 216" xml:space="preserve">
<g>
	<path fill="#FE5E14" d="M-74.071,604.787h13.986c4.771,0,8.314,1.109,10.627,3.33c2.312,2.223,3.469,5.664,3.469,10.324v11.23
		c0,4.662-1.157,8.104-3.469,10.324c-2.313,2.221-5.856,3.33-10.627,3.33h-13.986v-6.992h3.635v-24.61h-3.635V604.787z
		 M-60.085,636.391c2.533,0,4.304-0.596,5.313-1.789c1.009-1.191,1.513-3.055,1.513-5.59v-10.569c0-2.2-0.504-3.873-1.513-5.013
		c-1.009-1.137-2.78-1.705-5.313-1.705h-3.084v24.666H-60.085L-60.085,636.391z"/>
	<path fill="#FE5E14" d="M-38.116,636.721h9.25v-14.094h-8.59v-6.607h15.528v20.701H-14v6.607h-24.116V636.721z M-20.222,607.926
		c0,0.732-0.138,1.422-0.413,2.064c-0.275,0.643-0.652,1.19-1.129,1.649c-0.477,0.46-1.037,0.825-1.679,1.104
		c-0.642,0.275-1.313,0.412-2.01,0.412c-0.734,0-1.413-0.137-2.037-0.412c-0.625-0.277-1.175-0.646-1.652-1.104
		s-0.853-1.009-1.128-1.649c-0.275-0.644-0.414-1.332-0.414-2.064c0-0.733,0.138-1.422,0.414-2.065
		c0.275-0.642,0.651-1.19,1.128-1.651c0.477-0.457,1.027-0.824,1.652-1.101c0.624-0.274,1.303-0.412,2.037-0.412
		c0.697,0,1.368,0.138,2.01,0.412s1.202,0.644,1.679,1.101c0.477,0.461,0.854,1.012,1.129,1.651
		C-20.359,606.504-20.222,607.191-20.222,607.926z"/>
	<path fill="#FE5E14" d="M3.786,623.727c0,0.884,0.458,1.518,1.376,1.9c0.917,0.385,2.588,0.705,5.011,0.963
		c2.79,0.295,5.064,1.129,6.827,2.506s2.644,3.295,2.644,5.754v0.328c0,2.72-0.991,4.886-2.974,6.498
		c-1.982,1.617-4.771,2.424-8.369,2.424c-2.129,0-3.947-0.271-5.452-0.825c-1.505-0.552-2.752-1.237-3.744-2.063
		c-0.99-0.823-1.753-1.742-2.285-2.754c-0.532-1.011-0.89-1.99-1.073-2.944l6.387-2.093c0.293,1.174,0.909,2.203,1.845,3.084
		c0.935,0.879,2.376,1.32,4.322,1.32c1.725,0,2.909-0.268,3.551-0.8c0.642-0.528,0.963-1.108,0.963-1.731
		c0-0.369-0.082-0.709-0.248-1.021c-0.165-0.312-0.468-0.604-0.908-0.882c-0.441-0.273-1.038-0.504-1.79-0.688
		c-0.753-0.186-1.698-0.332-2.836-0.441c-3.083-0.256-5.534-1.055-7.351-2.396c-1.816-1.339-2.726-3.312-2.726-5.918v-0.332
		c0-1.357,0.294-2.55,0.881-3.578c0.586-1.026,1.358-1.897,2.312-2.615c0.954-0.715,2.055-1.256,3.304-1.623
		c1.248-0.366,2.533-0.551,3.854-0.551c1.725,0,3.22,0.213,4.486,0.633c1.268,0.425,2.341,0.975,3.222,1.652
		c0.881,0.679,1.596,1.43,2.147,2.258c0.55,0.824,0.972,1.623,1.266,2.396l-6.276,2.532c-0.33-0.991-0.9-1.771-1.708-2.341
		c-0.807-0.568-1.854-0.854-3.138-0.854c-1.175,0-2.057,0.211-2.643,0.634C4.079,622.58,3.786,623.104,3.786,623.727z"/>
	<path fill="#FE5E14" d="M28.013,616.02h8.093v-11.23h6.938v11.23h9.855v6.607h-9.855v12.443c0,1.1,0.496,1.648,1.486,1.648h7.379
		v6.607H40.347c-1.249,0-2.268-0.402-3.057-1.211c-0.79-0.809-1.184-1.835-1.184-3.085v-16.405h-8.093V616.02L28.013,616.02z"/>
	<path fill="#FE5E14" d="M61.159,616.02h11.562v3.964h0.991c0.514-1.505,1.385-2.673,2.615-3.496
		c1.229-0.825,2.706-1.237,4.435-1.237c2.715,0,4.898,0.854,6.551,2.562c1.65,1.707,2.478,4.303,2.478,7.791v1.211l-7.157,0.662
		v-0.771c0-1.504-0.385-2.707-1.156-3.607c-0.771-0.899-1.928-1.348-3.469-1.348c-1.542,0-2.753,0.531-3.635,1.596
		c-0.88,1.066-1.321,2.588-1.321,4.57v8.809h6.276v6.607h-18.83v-6.607h5.614v-14.094h-4.954V616.02L61.159,616.02z"/>
	<path fill="#FE5E14" d="M96.675,636.721h9.25v-14.094h-8.59v-6.607h15.526v20.701h7.929v6.607H96.675V636.721z M114.568,607.926
		c0,0.732-0.139,1.422-0.414,2.064c-0.273,0.642-0.65,1.19-1.127,1.649c-0.479,0.459-1.037,0.825-1.682,1.104
		c-0.643,0.275-1.312,0.412-2.011,0.412c-0.731,0-1.413-0.137-2.035-0.412c-0.625-0.277-1.176-0.646-1.654-1.104
		c-0.475-0.459-0.853-1.009-1.127-1.649c-0.273-0.644-0.412-1.332-0.412-2.064c0-0.733,0.139-1.422,0.412-2.065
		c0.274-0.642,0.652-1.19,1.127-1.651c0.479-0.457,1.029-0.824,1.654-1.101c0.622-0.274,1.304-0.412,2.035-0.412
		c0.698,0,1.368,0.138,2.011,0.412c0.645,0.274,1.202,0.644,1.682,1.101c0.477,0.461,0.854,1.012,1.127,1.651
		C114.43,606.504,114.568,607.191,114.568,607.926z"/>
	<path fill="#FE5E14" d="M156.525,633.307c-0.625,3.23-2.104,5.838-4.433,7.82c-2.333,1.98-5.442,2.973-9.333,2.973
		c-2.02,0-3.9-0.312-5.645-0.938c-1.745-0.623-3.26-1.521-4.543-2.697c-1.285-1.174-2.295-2.623-3.028-4.35
		c-0.733-1.726-1.103-3.688-1.103-5.892v-0.659c0-2.203,0.367-4.188,1.103-5.949c0.733-1.76,1.752-3.266,3.058-4.512
		c1.301-1.248,2.825-2.203,4.568-2.863c1.742-0.662,3.605-0.992,5.59-0.992c3.816,0,6.909,0.992,9.276,2.973
		c2.368,1.982,3.86,4.591,4.485,7.82l-6.826,1.76c-0.221-1.614-0.918-3.008-2.092-4.186c-1.176-1.172-2.828-1.76-4.957-1.76
		c-0.99,0-1.926,0.184-2.807,0.549c-0.883,0.369-1.652,0.893-2.314,1.57c-0.658,0.68-1.183,1.506-1.566,2.479
		s-0.578,2.064-0.578,3.275v0.33c0,1.211,0.191,2.283,0.578,3.223c0.386,0.936,0.908,1.717,1.566,2.34
		c0.662,0.623,1.434,1.092,2.314,1.402c0.881,0.312,1.814,0.469,2.807,0.469c2.129,0,3.752-0.531,4.873-1.598
		c1.119-1.062,1.847-2.494,2.176-4.293L156.525,633.307z"/>
	<path fill="#FE5E14" d="M162.803,616.02h8.096v-11.23h6.938v11.23h9.856v6.607h-9.856v12.443c0,1.1,0.495,1.648,1.485,1.648h7.38
		v6.607h-11.563c-1.246,0-2.267-0.402-3.056-1.211c-0.788-0.809-1.185-1.835-1.185-3.085v-16.405h-8.096V616.02L162.803,616.02z"/>
	<path fill="#FE5E14" d="M223.544,626.811v-11.452l9.582-2.644v-0.99h-19.161v-6.938h25.105V616.9l-10.238,2.973v0.99h1.32
		c1.357,0,2.697,0.211,4.02,0.635c1.323,0.422,2.487,1.072,3.496,1.953c1.01,0.881,1.826,1.975,2.45,3.277
		c0.623,1.303,0.938,2.836,0.938,4.598v0.66c0,1.725-0.287,3.321-0.854,4.791c-0.57,1.469-1.414,2.742-2.534,3.823
		c-1.12,1.084-2.505,1.938-4.156,2.562c-1.652,0.625-3.543,0.938-5.673,0.938c-2.165,0-4.129-0.348-5.89-1.045
		c-1.764-0.696-3.26-1.651-4.487-2.862c-1.229-1.214-2.177-2.604-2.836-4.188c-0.661-1.576-0.991-3.246-0.991-5.01v-2.312h7.268
		v1.979c0,1.764,0.568,3.287,1.709,4.569c1.138,1.286,2.844,1.929,5.121,1.929c1.941,0,3.438-0.494,4.485-1.486
		c1.048-0.991,1.568-2.295,1.568-3.909c0-1.726-0.562-2.981-1.679-3.771c-1.121-0.787-2.541-1.185-4.271-1.185L223.544,626.811
		L223.544,626.811z"/>
</g>
<g>
	<g>
		<path fill="#FE5E14" d="M66.198,394.542c-0.005-0.024-0.015-0.047-0.021-0.071c-0.048-0.219-0.116-0.433-0.198-0.642
			c-0.029-0.075-0.063-0.146-0.097-0.22c-0.074-0.159-0.158-0.313-0.252-0.465c-0.04-0.062-0.078-0.129-0.121-0.189
			c-0.135-0.191-0.281-0.374-0.449-0.543c-0.008-0.008-0.015-0.018-0.021-0.026c0,0-0.002-0.002-0.003-0.003l-44.184-44.017
			c-0.794-0.792-1.871-1.236-2.992-1.236h-87.01c-1.714,0-3.26,1.033-3.916,2.617c-0.227,0.546-0.324,1.121-0.314,1.688
			c-0.001,0.037-0.008,0.073-0.008,0.112V570.28c0,1.125,0.446,2.203,1.242,2.998c0.795,0.795,1.873,1.241,2.997,1.241l44.007-0.002
			h43.537c0.032,0,0.088,0.002,0.171,0.002c2.161,0,21.428-0.388,34.929-13.704c8.486-8.373,12.789-19.916,12.789-34.309V395.384
			c0-0.028-0.008-0.054-0.009-0.081C66.27,395.047,66.248,394.792,66.198,394.542z M16.109,355.605l35.673,35.539h-75.169
			l-35.53-35.539H16.109z M-64.91,361.753l35.529,35.392V566.04l-35.529,0.002V361.753z M47.589,554.729
			c-11.44,11.337-28.904,11.277-29.138,11.312h-39.354V399.623h78.708v126.885C57.805,538.518,54.368,548.012,47.589,554.729z"/>
	</g>
</g>
<rect fill="#FFFFFF" width="216" height="216"/>
<polygon fill="none" stroke="#FE5E14" stroke-miterlimit="10" points="172.023,258.299 172.523,126 217.023,82 217.023,215.799 "/>
<polyline fill="none" stroke="#FE5E14" stroke-miterlimit="10" points="172.523,125.883 260.023,213.383 304.775,168.633 
	217.523,81.383 "/>
<polyline fill="none" stroke="#FFFFFF" stroke-width="2" stroke-miterlimit="10" points="304.775,168.633 304.773,81.384 
	260.898,125.258 "/>
<path fill="none" stroke="#FFFFFF" stroke-width="2" stroke-miterlimit="10" d="M305.746,80.058h39.75c0,0,47-5.5,47,58.5
	c0.001,63.998,0.001,74.5,0.001,74.5"/>
<polygon fill="none" stroke="#FE5E14" stroke-miterlimit="10" points="43.193,-43.943 43.249,89.251 -1.25,133.25 -1.095,-0.732 "/>
<polyline fill="none" stroke="#FE5E14" stroke-miterlimit="10" points="43,89 -43.801,1.388 -88.551,46.138 -1.301,133.389 "/>
<polyline fill="none" stroke="#FFFFFF" stroke-width="2" stroke-miterlimit="10" points="-88.551,46.138 -88.55,133.389 
	-44.676,89.513 "/>
<path fill="none" stroke="#FFFFFF" stroke-width="2" stroke-miterlimit="10" d="M-89.539,134.805h-39.75c0,0-47,5.5-47-58.5
	c0-64,0-74.5,0-74.5"/>
</svg>
