<?xml version="1.0" encoding="utf-8"?>
<!-- Generator: Adobe Illustrator 16.0.0, SVG Export Plug-In . SVG Version: 6.00 Build 0)  -->
<!DOCTYPE svg PUBLIC "-//W3C//DTD SVG 1.1//EN" "http://www.w3.org/Graphics/SVG/1.1/DTD/svg11.dtd">
<svg version="1.1" id="Layer_1" xmlns="http://www.w3.org/2000/svg" xmlns:xlink="http://www.w3.org/1999/xlink" x="0px" y="0px"
	 width="144px" height="135.5px" viewBox="0 0 144 135.5" enable-background="new 0 0 144 135.5" xml:space="preserve">
<g>
	<g>
		<g>
			<path fill="#FFFFFF" d="M64.059,22.37c-0.003-0.011-0.007-0.021-0.009-0.032c-0.022-0.099-0.052-0.195-0.089-0.289
				c-0.014-0.034-0.029-0.067-0.043-0.099c-0.034-0.072-0.072-0.142-0.114-0.209c-0.018-0.028-0.035-0.059-0.055-0.086
				c-0.061-0.086-0.126-0.169-0.202-0.245c-0.003-0.004-0.007-0.009-0.01-0.013c0,0,0-0.001-0.001-0.001L43.621,1.558
				c-0.358-0.356-0.843-0.557-1.348-0.557H3.057c-0.772,0-1.469,0.466-1.765,1.179C1.19,2.426,1.146,2.685,1.15,2.941
				c0,0.017-0.003,0.034-0.003,0.051v98.584c0,0.505,0.201,0.992,0.56,1.35c0.358,0.358,0.844,0.561,1.351,0.561l19.834-0.002
				h19.622c0.015,0,0.04,0.002,0.077,0.002c0.974,0,9.658-0.175,15.743-6.177c3.825-3.775,5.765-8.977,5.765-15.462V22.75
				c0-0.013-0.004-0.024-0.004-0.037C64.091,22.598,64.082,22.483,64.059,22.37z M41.483,4.822l16.078,16.017H23.682L7.669,4.822
				H41.483z M4.968,7.593L20.98,23.543v76.122L4.968,99.667V7.593z M55.671,94.565c-5.157,5.109-13.027,5.085-13.133,5.1H24.801
				V24.66h35.475v57.188C60.276,87.261,58.727,91.54,55.671,94.565z"/>
			<path fill="#FFFFFF" d="M142.867,61.905c-0.004-0.02-0.011-0.038-0.016-0.058c-0.021-0.089-0.048-0.178-0.083-0.265
				c-0.014-0.035-0.029-0.069-0.045-0.103c-0.032-0.073-0.07-0.141-0.112-0.208c-0.019-0.029-0.034-0.058-0.054-0.086
				c-0.062-0.087-0.129-0.173-0.207-0.251l-0.004-0.005c-0.002-0.001-0.003-0.003-0.005-0.004l-18.276-18.475l18.222-18.32
				c0.385-0.351,0.63-0.85,0.63-1.411c0-0.388-0.124-0.745-0.323-1.046c0,0,0-0.001-0.001-0.001
				c-0.066-0.103-0.143-0.195-0.228-0.283c-0.006-0.005-0.008-0.012-0.015-0.018l-19.566-19.78c-0.091-0.09-0.188-0.171-0.292-0.242
				c-0.06-0.04-0.127-0.07-0.191-0.103c-0.046-0.024-0.091-0.054-0.139-0.075c-0.062-0.026-0.128-0.04-0.192-0.059
				c-0.056-0.017-0.108-0.04-0.165-0.051c-0.059-0.012-0.117-0.013-0.175-0.018c-0.067-0.007-0.133-0.021-0.199-0.021
				c-0.001,0-0.004,0-0.005,0s-0.002,0-0.003,0H62.08c-0.772,0-1.468,0.464-1.767,1.176c-0.297,0.713-0.137,1.535,0.406,2.084
				l19.568,19.781c0.359,0.364,0.85,0.567,1.36,0.567h15.248L80.512,40.929c-0.749,0.745-0.753,1.953-0.012,2.704l19.78,19.993
				c0.011,0.011,0.022,0.017,0.032,0.027c0.078,0.075,0.159,0.145,0.248,0.206c0.006,0.003,0.009,0.008,0.014,0.011
				c0.094,0.062,0.194,0.114,0.298,0.159c0.03,0.013,0.059,0.024,0.089,0.035c0.08,0.03,0.159,0.054,0.242,0.074
				c0.032,0.007,0.063,0.016,0.096,0.022c0.108,0.02,0.221,0.033,0.333,0.033c0.002,0,0.005,0.001,0.007,0.001s0.003,0,0.003,0
				h37.434v17.441c0,17.381-17.141,17.649-17.866,17.653H81.861c-1.059,0-1.914,0.857-1.914,1.915c0,1.057,0.855,1.912,1.914,1.912
				h39.348c0.217,0,21.695-0.244,21.695-21.48V62.28c0-0.012-0.003-0.023-0.004-0.035C142.899,62.13,142.889,62.017,142.867,61.905z
				 M121.411,5.648l14.993,15.156h-30.23L121.411,5.648z M82.446,20.804L66.667,4.852h50.118l-16.039,15.952H82.446z
				 M102.324,24.632h34.062l-34.741,34.93l-17.08-17.265L102.324,24.632z M106.263,60.366l15.152-15.152l14.989,15.152H106.263z"/>
		</g>
	</g>
	<g>
		<path fill="#FFFFFF" d="M1.146,117.256h6.292c2.146,0,3.74,0.498,4.781,1.497c1.04,0.999,1.561,2.549,1.561,4.645v5.053
			c0,2.099-0.521,3.646-1.561,4.645c-1.041,0.999-2.634,1.5-4.781,1.5H1.146v-3.147h1.635v-11.071H1.146V117.256z M7.438,131.473
			c1.139,0,1.936-0.268,2.39-0.806c0.454-0.535,0.682-1.374,0.682-2.515v-4.755c0-0.99-0.228-1.743-0.682-2.255
			c-0.454-0.511-1.25-0.767-2.39-0.767H6.051v11.097H7.438z"/>
		<path fill="#FFFFFF" d="M17.321,131.62h4.162v-6.34h-3.865v-2.974h6.986v9.313h3.566v2.975H17.321V131.62z M25.372,118.665
			c0,0.332-0.062,0.641-0.186,0.931c-0.124,0.288-0.293,0.536-0.508,0.742c-0.214,0.207-0.466,0.371-0.755,0.496
			c-0.289,0.123-0.591,0.186-0.904,0.186c-0.33,0-0.636-0.062-0.917-0.186c-0.281-0.125-0.529-0.289-0.744-0.496
			c-0.214-0.206-0.384-0.454-0.507-0.742c-0.125-0.29-0.187-0.599-0.187-0.931c0-0.329,0.062-0.638,0.187-0.928
			c0.123-0.288,0.292-0.536,0.507-0.742c0.215-0.207,0.462-0.371,0.744-0.496c0.28-0.123,0.586-0.186,0.917-0.186
			c0.313,0,0.615,0.062,0.904,0.186c0.289,0.125,0.541,0.289,0.755,0.496c0.215,0.206,0.384,0.454,0.508,0.742
			C25.311,118.027,25.372,118.336,25.372,118.665z"/>
		<path fill="#FFFFFF" d="M36.172,125.774c0,0.396,0.206,0.683,0.62,0.855c0.412,0.173,1.164,0.319,2.254,0.434
			c1.255,0.134,2.278,0.509,3.071,1.126c0.793,0.62,1.188,1.485,1.188,2.589v0.149c0,1.223-0.446,2.196-1.337,2.922
			c-0.892,0.728-2.146,1.091-3.765,1.091c-0.958,0-1.775-0.123-2.452-0.371c-0.677-0.248-1.238-0.559-1.684-0.931
			c-0.446-0.371-0.79-0.783-1.028-1.236c-0.24-0.454-0.401-0.896-0.484-1.326l2.874-0.94c0.132,0.527,0.409,0.99,0.83,1.387
			c0.42,0.396,1.068,0.595,1.944,0.595c0.776,0,1.308-0.121,1.597-0.359c0.289-0.239,0.434-0.5,0.434-0.779
			c0-0.167-0.037-0.319-0.111-0.459c-0.074-0.14-0.21-0.273-0.408-0.396c-0.199-0.125-0.467-0.228-0.805-0.309
			c-0.339-0.083-0.764-0.15-1.276-0.198c-1.387-0.117-2.489-0.476-3.307-1.08c-0.817-0.601-1.226-1.489-1.226-2.661v-0.15
			c0-0.608,0.132-1.145,0.397-1.609c0.264-0.461,0.611-0.854,1.04-1.177c0.43-0.321,0.924-0.565,1.486-0.729
			c0.562-0.165,1.14-0.248,1.734-0.248c0.776,0,1.449,0.096,2.019,0.285c0.57,0.189,1.052,0.438,1.45,0.742
			c0.396,0.307,0.718,0.645,0.966,1.016c0.247,0.371,0.437,0.732,0.569,1.078l-2.824,1.139c-0.149-0.446-0.405-0.796-0.768-1.051
			c-0.363-0.259-0.834-0.386-1.412-0.386c-0.528,0-0.924,0.096-1.188,0.286C36.303,125.26,36.172,125.493,36.172,125.774z"/>
		<path fill="#FFFFFF" d="M47.071,122.307h3.641v-5.051h3.122v5.051h4.434v2.974h-4.434v5.598c0,0.494,0.222,0.742,0.668,0.742
			h3.319v2.975H52.62c-0.562,0-1.02-0.182-1.375-0.545c-0.355-0.365-0.533-0.825-0.533-1.389v-7.381h-3.641V122.307z"/>
		<path fill="#FFFFFF" d="M61.983,122.307h5.201v1.783h0.447c0.23-0.676,0.623-1.201,1.176-1.572
			c0.553-0.371,1.218-0.557,1.994-0.557c1.221,0,2.204,0.383,2.948,1.152c0.742,0.768,1.113,1.936,1.113,3.504v0.547l-3.219,0.296
			v-0.347c0-0.678-0.174-1.218-0.52-1.622c-0.347-0.404-0.868-0.606-1.561-0.606c-0.694,0-1.239,0.239-1.636,0.719
			c-0.395,0.478-0.594,1.162-0.594,2.055v3.962h2.824v2.975h-8.471v-2.975h2.526v-6.34h-2.229V122.307z"/>
		<path fill="#FFFFFF" d="M77.96,131.62h4.162v-6.34h-3.865v-2.974h6.985v9.313h3.567v2.975H77.96V131.62z M86.011,118.665
			c0,0.332-0.063,0.641-0.187,0.931c-0.124,0.288-0.293,0.536-0.508,0.742c-0.214,0.207-0.467,0.371-0.756,0.496
			c-0.289,0.123-0.59,0.186-0.903,0.186c-0.329,0-0.636-0.062-0.916-0.186c-0.282-0.125-0.529-0.289-0.744-0.496
			c-0.215-0.206-0.384-0.454-0.508-0.742c-0.123-0.29-0.185-0.599-0.185-0.931c0-0.329,0.062-0.638,0.185-0.928
			c0.124-0.288,0.293-0.536,0.508-0.742c0.215-0.207,0.462-0.371,0.744-0.496c0.28-0.123,0.587-0.186,0.916-0.186
			c0.313,0,0.614,0.062,0.903,0.186c0.289,0.125,0.542,0.289,0.756,0.496c0.215,0.206,0.384,0.454,0.508,0.742
			C85.947,118.027,86.011,118.336,86.011,118.665z"/>
		<path fill="#FFFFFF" d="M104.887,130.086c-0.283,1.453-0.946,2.625-1.995,3.518c-1.049,0.891-2.448,1.337-4.198,1.337
			c-0.909,0-1.755-0.142-2.54-0.421c-0.784-0.282-1.465-0.685-2.043-1.214c-0.578-0.527-1.032-1.181-1.362-1.956
			c-0.331-0.776-0.494-1.66-0.494-2.651V128.4c0-0.99,0.163-1.881,0.494-2.676c0.33-0.792,0.789-1.468,1.374-2.029
			c0.586-0.561,1.272-0.992,2.057-1.288c0.784-0.299,1.622-0.446,2.515-0.446c1.717,0,3.107,0.446,4.173,1.336
			c1.067,0.893,1.737,2.065,2.021,3.519l-3.073,0.793c-0.099-0.727-0.412-1.354-0.94-1.884c-0.529-0.527-1.272-0.792-2.23-0.792
			c-0.445,0-0.865,0.083-1.263,0.248c-0.396,0.164-0.743,0.4-1.041,0.707c-0.297,0.307-0.532,0.678-0.705,1.115
			c-0.174,0.437-0.261,0.929-0.261,1.473v0.148c0,0.546,0.087,1.027,0.261,1.449c0.173,0.421,0.408,0.773,0.705,1.053
			c0.298,0.279,0.646,0.49,1.041,0.632c0.397,0.14,0.817,0.211,1.263,0.211c0.958,0,1.689-0.24,2.192-0.72
			c0.504-0.478,0.83-1.122,0.979-1.931L104.887,130.086z"/>
		<path fill="#FFFFFF" d="M107.709,122.307h3.643v-5.051h3.119v5.051h4.436v2.974h-4.436v5.598c0,0.494,0.225,0.742,0.67,0.742h3.32
			v2.975h-5.203c-0.561,0-1.021-0.182-1.375-0.545c-0.354-0.365-0.531-0.825-0.531-1.389v-7.381h-3.643V122.307z"/>
		<path fill="#FFFFFF" d="M135.035,127.164v-5.153l4.312-1.188v-0.446h-8.62v-3.12h11.295v5.447l-4.607,1.339v0.444h0.595
			c0.61,0,1.214,0.096,1.807,0.285c0.596,0.192,1.119,0.484,1.573,0.88c0.454,0.396,0.821,0.889,1.102,1.475
			c0.282,0.586,0.423,1.274,0.423,2.069v0.296c0,0.775-0.129,1.495-0.384,2.154c-0.258,0.661-0.637,1.234-1.141,1.723
			c-0.503,0.488-1.127,0.869-1.869,1.151c-0.744,0.279-1.594,0.421-2.553,0.421c-0.974,0-1.856-0.156-2.649-0.469
			c-0.792-0.315-1.466-0.745-2.019-1.289c-0.554-0.545-0.979-1.172-1.275-1.884c-0.297-0.709-0.446-1.459-0.446-2.254v-1.041h3.269
			v0.893c0,0.793,0.257,1.479,0.769,2.057c0.513,0.577,1.28,0.865,2.304,0.865c0.874,0,1.549-0.221,2.019-0.667
			c0.472-0.446,0.706-1.032,0.706-1.761c0-0.775-0.252-1.341-0.756-1.695s-1.143-0.531-1.92-0.531H135.035z"/>
	</g>
</g>
</svg>
